<svg width="410" height="492" viewBox="0 0 410 492" fill="none" xmlns="http://www.w3.org/2000/svg">
<path d="M166.418 27.6559L166.586 26.8879L166.586 356.112L62.862 252.616C57.798 247.548 50.938 244.768 43.738 244.768C36.538 244.768 29.726 247.548 24.65 252.616L8.53801 268.72C3.47401 273.784 0.674014 280.532 0.674014 287.728C0.674014 294.928 3.45402 301.68 8.51802 306.744L185.914 484.156C190.998 489.24 197.77 492.02 204.974 492C212.218 492.02 218.994 489.24 224.07 484.156L401.482 306.744C406.542 301.68 409.326 294.932 409.326 287.728C409.326 280.532 406.538 273.784 401.482 268.72L385.37 252.616C380.314 247.548 373.562 244.768 366.362 244.768C359.166 244.768 352.77 247.548 347.71 252.616L243.406 357.28L243.406 27.2879C243.406 12.4599 230.626 -0.000119328 215.806 -0.000119505L193.018 -0.000119777C178.198 -0.000119953 166.418 12.8279 166.418 27.6559Z" fill="black"/>
</svg>
