<svg width="410" height="492" viewBox="0 0 410 492" fill="none" xmlns="http://www.w3.org/2000/svg">
<path d="M243.582 464.344L243.414 465.112L243.414 135.888L347.138 239.384C352.202 244.452 359.062 247.232 366.262 247.232C373.462 247.232 380.274 244.452 385.35 239.384L401.462 223.28C406.526 218.216 409.326 211.468 409.326 204.272C409.326 197.072 406.546 190.32 401.482 185.256L224.086 7.84398C219.002 2.75998 212.23 -0.0200235 205.026 -2.38351e-05C197.782 -0.0200242 191.006 2.75998 185.93 7.84398L8.51801 185.256C3.45801 190.32 0.674018 197.068 0.674018 204.272C0.674017 211.468 3.46201 218.216 8.51801 223.28L24.63 239.384C29.686 244.452 36.438 247.232 43.638 247.232C50.834 247.232 57.23 244.452 62.29 239.384L166.594 134.72L166.594 464.712C166.594 479.54 179.374 492 194.194 492L216.982 492C231.802 492 243.582 479.172 243.582 464.344Z" fill="black"/>
</svg>
